<?xml version="1.0" encoding="UTF-8" standalone="no"?>
<!DOCTYPE svg PUBLIC "-//W3C//DTD SVG 1.1//EN"
 "http://www.w3.org/Graphics/SVG/1.1/DTD/svg11.dtd">
<!-- Generated by graphviz version 12.1.2 (0)
 -->
<!-- Title: binaryTree Pages: 1 -->
<svg width="631pt" height="308pt"
 viewBox="0.00 0.00 631.00 308.00" xmlns="http://www.w3.org/2000/svg" xmlns:xlink="http://www.w3.org/1999/xlink">
<g id="graph0" class="graph" transform="scale(1 1) rotate(0) translate(4 304)">
<title>binaryTree</title>
<polygon fill="white" stroke="none" points="-4,4 -4,-304 627,-304 627,4 -4,4"/>
<!-- p0x6092455fd570 -->
<g id="node1" class="node">
<title>p0x6092455fd570</title>
<path fill="none" stroke="gray" d="M247,-235C247,-235 447,-235 447,-235 453,-235 459,-241 459,-247 459,-247 459,-287.5 459,-287.5 459,-293.5 453,-299.5 447,-299.5 447,-299.5 247,-299.5 247,-299.5 241,-299.5 235,-293.5 235,-287.5 235,-287.5 235,-247 235,-247 235,-241 241,-235 247,-235"/>
<text text-anchor="middle" x="347" y="-286" font-family="JetBrains Mono" font-size="10.00">[0x6092455fd570]</text>
<polyline fill="none" stroke="gray" points="235,-278 459,-278"/>
<text text-anchor="middle" x="347" y="-264.5" font-family="JetBrains Mono" font-size="10.00">data = [имеет_большой_жирный_хуй]</text>
<polyline fill="none" stroke="gray" points="235,-256.5 459,-256.5"/>
<text text-anchor="middle" x="291" y="-243" font-family="JetBrains Mono" font-size="10.00">[0x6092455fdf20]</text>
<polyline fill="none" stroke="gray" points="347,-235 347,-256.5"/>
<text text-anchor="middle" x="403" y="-243" font-family="JetBrains Mono" font-size="10.00">[0x6092455fd8c0]</text>
</g>
<!-- p0x6092455fdf20 -->
<g id="node2" class="node">
<title>p0x6092455fdf20</title>
<path fill="none" stroke="gray" d="M68,-117.75C68,-117.75 268,-117.75 268,-117.75 274,-117.75 280,-123.75 280,-129.75 280,-129.75 280,-170.25 280,-170.25 280,-176.25 274,-182.25 268,-182.25 268,-182.25 68,-182.25 68,-182.25 62,-182.25 56,-176.25 56,-170.25 56,-170.25 56,-129.75 56,-129.75 56,-123.75 62,-117.75 68,-117.75"/>
<text text-anchor="middle" x="168" y="-168.75" font-family="JetBrains Mono" font-size="10.00">[0x6092455fdf20]</text>
<polyline fill="none" stroke="gray" points="56,-160.75 280,-160.75"/>
<text text-anchor="middle" x="168" y="-147.25" font-family="JetBrains Mono" font-size="10.00">data = [чурка]</text>
<polyline fill="none" stroke="gray" points="56,-139.25 280,-139.25"/>
<text text-anchor="middle" x="112" y="-125.75" font-family="JetBrains Mono" font-size="10.00">[0x6092455fc350]</text>
<polyline fill="none" stroke="gray" points="168,-117.75 168,-139.25"/>
<text text-anchor="middle" x="224" y="-125.75" font-family="JetBrains Mono" font-size="10.00">[0x6092455fdeb0]</text>
</g>
<!-- p0x6092455fd570&#45;&gt;p0x6092455fdf20 -->
<g id="edge1" class="edge">
<title>p0x6092455fd570:l&#45;&gt;p0x6092455fdf20</title>
<path fill="none" stroke="green" stroke-width="2" stroke-dasharray="5,2" d="M234,-245.75C234,-245.75 212.36,-214.69 193.87,-188.14"/>
<polygon fill="green" stroke="green" stroke-width="2" points="195.14,-187.52 191.71,-185.03 192.84,-189.12 195.14,-187.52"/>
<text text-anchor="middle" x="223.15" y="-203.2" font-family="Times,serif" font-size="14.00">NO</text>
</g>
<!-- p0x6092455fd8c0 -->
<g id="node5" class="node">
<title>p0x6092455fd8c0</title>
<path fill="none" stroke="gray" d="M344,-117.75C344,-117.75 544,-117.75 544,-117.75 550,-117.75 556,-123.75 556,-129.75 556,-129.75 556,-170.25 556,-170.25 556,-176.25 550,-182.25 544,-182.25 544,-182.25 344,-182.25 344,-182.25 338,-182.25 332,-176.25 332,-170.25 332,-170.25 332,-129.75 332,-129.75 332,-123.75 338,-117.75 344,-117.75"/>
<text text-anchor="middle" x="444" y="-168.75" font-family="JetBrains Mono" font-size="10.00">[0x6092455fd8c0]</text>
<polyline fill="none" stroke="gray" points="332,-160.75 556,-160.75"/>
<text text-anchor="middle" x="444" y="-147.25" font-family="JetBrains Mono" font-size="10.00">data = [в_жопе]</text>
<polyline fill="none" stroke="gray" points="332,-139.25 556,-139.25"/>
<text text-anchor="middle" x="388" y="-125.75" font-family="JetBrains Mono" font-size="10.00">[0x6092455fd500]</text>
<polyline fill="none" stroke="gray" points="444,-117.75 444,-139.25"/>
<text text-anchor="middle" x="500" y="-125.75" font-family="JetBrains Mono" font-size="10.00">[0x6092455fd850]</text>
</g>
<!-- p0x6092455fd570&#45;&gt;p0x6092455fd8c0 -->
<g id="edge4" class="edge">
<title>p0x6092455fd570:r&#45;&gt;p0x6092455fd8c0</title>
<path fill="none" stroke="green" stroke-width="2" stroke-dasharray="5,2" d="M403,-234.5C403,-234.5 414.6,-210.87 425.47,-188.75"/>
<polygon fill="green" stroke="green" stroke-width="2" points="426.66,-189.49 427.17,-185.28 424.15,-188.26 426.66,-189.49"/>
<text text-anchor="middle" x="431.37" y="-203.2" font-family="Times,serif" font-size="14.00">YES</text>
</g>
<!-- p0x6092455fc350 -->
<g id="node3" class="node">
<title>p0x6092455fc350</title>
<path fill="none" stroke="gray" d="M12,-0.5C12,-0.5 106,-0.5 106,-0.5 112,-0.5 118,-6.5 118,-12.5 118,-12.5 118,-53 118,-53 118,-59 112,-65 106,-65 106,-65 12,-65 12,-65 6,-65 0,-59 0,-53 0,-53 0,-12.5 0,-12.5 0,-6.5 6,-0.5 12,-0.5"/>
<text text-anchor="middle" x="59" y="-51.5" font-family="JetBrains Mono" font-size="10.00">[0x6092455fc350]</text>
<polyline fill="none" stroke="gray" points="0,-43.5 118,-43.5"/>
<text text-anchor="middle" x="59" y="-30" font-family="JetBrains Mono" font-size="10.00">data = [Bebra228]</text>
<polyline fill="none" stroke="gray" points="0,-22 118,-22"/>
<text text-anchor="middle" x="29.5" y="-8.5" font-family="JetBrains Mono" font-size="10.00">[(nil)]</text>
<polyline fill="none" stroke="gray" points="59,-0.5 59,-22"/>
<text text-anchor="middle" x="88.5" y="-8.5" font-family="JetBrains Mono" font-size="10.00">[(nil)]</text>
</g>
<!-- p0x6092455fdf20&#45;&gt;p0x6092455fc350 -->
<g id="edge2" class="edge">
<title>p0x6092455fdf20:l&#45;&gt;p0x6092455fc350</title>
<path fill="none" stroke="green" stroke-width="2" stroke-dasharray="5,2" d="M55,-128.5C55,-128.5 56.27,-98.47 57.38,-72.22"/>
<polygon fill="green" stroke="green" stroke-width="2" points="58.77,-72.38 57.54,-68.32 55.97,-72.26 58.77,-72.38"/>
<text text-anchor="middle" x="67.38" y="-85.95" font-family="Times,serif" font-size="14.00">NO</text>
</g>
<!-- p0x6092455fdeb0 -->
<g id="node4" class="node">
<title>p0x6092455fdeb0</title>
<path fill="none" stroke="gray" d="M159,-0.5C159,-0.5 289,-0.5 289,-0.5 295,-0.5 301,-6.5 301,-12.5 301,-12.5 301,-53 301,-53 301,-59 295,-65 289,-65 289,-65 159,-65 159,-65 153,-65 147,-59 147,-53 147,-53 147,-12.5 147,-12.5 147,-6.5 153,-0.5 159,-0.5"/>
<text text-anchor="middle" x="224" y="-51.5" font-family="JetBrains Mono" font-size="10.00">[0x6092455fdeb0]</text>
<polyline fill="none" stroke="gray" points="147,-43.5 301,-43.5"/>
<text text-anchor="middle" x="224" y="-30" font-family="JetBrains Mono" font-size="10.00">data = [арсен_маркарян]</text>
<polyline fill="none" stroke="gray" points="147,-22 301,-22"/>
<text text-anchor="middle" x="185.5" y="-8.5" font-family="JetBrains Mono" font-size="10.00">[(nil)]</text>
<polyline fill="none" stroke="gray" points="224,-0.5 224,-22"/>
<text text-anchor="middle" x="262.5" y="-8.5" font-family="JetBrains Mono" font-size="10.00">[(nil)]</text>
</g>
<!-- p0x6092455fdf20&#45;&gt;p0x6092455fdeb0 -->
<g id="edge3" class="edge">
<title>p0x6092455fdf20:r&#45;&gt;p0x6092455fdeb0</title>
<path fill="none" stroke="green" stroke-width="2" stroke-dasharray="5,2" d="M224,-117.25C224,-117.25 224,-94.02 224,-72.06"/>
<polygon fill="green" stroke="green" stroke-width="2" points="225.4,-72.34 224,-68.34 222.6,-72.34 225.4,-72.34"/>
<text text-anchor="middle" x="236.75" y="-85.95" font-family="Times,serif" font-size="14.00">YES</text>
</g>
<!-- p0x6092455fd500 -->
<g id="node6" class="node">
<title>p0x6092455fd500</title>
<path fill="none" stroke="gray" d="M342,-0.5C342,-0.5 434,-0.5 434,-0.5 440,-0.5 446,-6.5 446,-12.5 446,-12.5 446,-53 446,-53 446,-59 440,-65 434,-65 434,-65 342,-65 342,-65 336,-65 330,-59 330,-53 330,-53 330,-12.5 330,-12.5 330,-6.5 336,-0.5 342,-0.5"/>
<text text-anchor="middle" x="388" y="-51.5" font-family="JetBrains Mono" font-size="10.00">[0x6092455fd500]</text>
<polyline fill="none" stroke="gray" points="330,-43.5 446,-43.5"/>
<text text-anchor="middle" x="388" y="-30" font-family="JetBrains Mono" font-size="10.00">data = [ванек]</text>
<polyline fill="none" stroke="gray" points="330,-22 446,-22"/>
<text text-anchor="middle" x="359" y="-8.5" font-family="JetBrains Mono" font-size="10.00">[(nil)]</text>
<polyline fill="none" stroke="gray" points="388,-0.5 388,-22"/>
<text text-anchor="middle" x="417" y="-8.5" font-family="JetBrains Mono" font-size="10.00">[(nil)]</text>
</g>
<!-- p0x6092455fd8c0&#45;&gt;p0x6092455fd500 -->
<g id="edge5" class="edge">
<title>p0x6092455fd8c0:l&#45;&gt;p0x6092455fd500</title>
<path fill="none" stroke="green" stroke-width="2" stroke-dasharray="5,2" d="M388,-117.25C388,-117.25 388,-94.02 388,-72.06"/>
<polygon fill="green" stroke="green" stroke-width="2" points="389.4,-72.34 388,-68.34 386.6,-72.34 389.4,-72.34"/>
<text text-anchor="middle" x="398.5" y="-85.95" font-family="Times,serif" font-size="14.00">NO</text>
</g>
<!-- p0x6092455fd850 -->
<g id="node7" class="node">
<title>p0x6092455fd850</title>
<path fill="none" stroke="gray" d="M487,-0.5C487,-0.5 611,-0.5 611,-0.5 617,-0.5 623,-6.5 623,-12.5 623,-12.5 623,-53 623,-53 623,-59 617,-65 611,-65 611,-65 487,-65 487,-65 481,-65 475,-59 475,-53 475,-53 475,-12.5 475,-12.5 475,-6.5 481,-0.5 487,-0.5"/>
<text text-anchor="middle" x="549" y="-51.5" font-family="JetBrains Mono" font-size="10.00">[0x6092455fd850]</text>
<polyline fill="none" stroke="gray" points="475,-43.5 623,-43.5"/>
<text text-anchor="middle" x="549" y="-30" font-family="JetBrains Mono" font-size="10.00">data = [макс_тимошкин]</text>
<polyline fill="none" stroke="gray" points="475,-22 623,-22"/>
<text text-anchor="middle" x="512" y="-8.5" font-family="JetBrains Mono" font-size="10.00">[(nil)]</text>
<polyline fill="none" stroke="gray" points="549,-0.5 549,-22"/>
<text text-anchor="middle" x="586" y="-8.5" font-family="JetBrains Mono" font-size="10.00">[(nil)]</text>
</g>
<!-- p0x6092455fd8c0&#45;&gt;p0x6092455fd850 -->
<g id="edge6" class="edge">
<title>p0x6092455fd8c0:r&#45;&gt;p0x6092455fd850</title>
<path fill="none" stroke="green" stroke-width="2" stroke-dasharray="5,2" d="M557,-128.5C557,-128.5 554.46,-98.47 552.25,-72.22"/>
<polygon fill="green" stroke="green" stroke-width="2" points="553.65,-72.18 551.92,-68.32 550.86,-72.42 553.65,-72.18"/>
<text text-anchor="middle" x="567.16" y="-85.95" font-family="Times,serif" font-size="14.00">YES</text>
</g>
</g>
</svg>
