<?xml version="1.0" encoding="UTF-8" standalone="no"?>
<!DOCTYPE svg PUBLIC "-//W3C//DTD SVG 1.1//EN"
 "http://www.w3.org/Graphics/SVG/1.1/DTD/svg11.dtd">
<!-- Generated by graphviz version 12.1.2 (0)
 -->
<!-- Title: binaryTree Pages: 1 -->
<svg width="303pt" height="191pt"
 viewBox="0.00 0.00 303.00 190.75" xmlns="http://www.w3.org/2000/svg" xmlns:xlink="http://www.w3.org/1999/xlink">
<g id="graph0" class="graph" transform="scale(1 1) rotate(0) translate(4 186.75)">
<title>binaryTree</title>
<polygon fill="white" stroke="none" points="-4,4 -4,-186.75 299,-186.75 299,4 -4,4"/>
<!-- p0x6249d9759570 -->
<g id="node1" class="node">
<title>p0x6249d9759570</title>
<path fill="none" stroke="gray" d="M40,-117.75C40,-117.75 240,-117.75 240,-117.75 246,-117.75 252,-123.75 252,-129.75 252,-129.75 252,-170.25 252,-170.25 252,-176.25 246,-182.25 240,-182.25 240,-182.25 40,-182.25 40,-182.25 34,-182.25 28,-176.25 28,-170.25 28,-170.25 28,-129.75 28,-129.75 28,-123.75 34,-117.75 40,-117.75"/>
<text text-anchor="middle" x="140" y="-168.75" font-family="JetBrains Mono" font-size="10.00">[0x6249d9759570]</text>
<polyline fill="none" stroke="gray" points="28,-160.75 252,-160.75"/>
<text text-anchor="middle" x="140" y="-147.25" font-family="JetBrains Mono" font-size="10.00">data = [big_black_cock]</text>
<polyline fill="none" stroke="gray" points="28,-139.25 252,-139.25"/>
<text text-anchor="middle" x="84" y="-125.75" font-family="JetBrains Mono" font-size="10.00">[0x6249d9758350]</text>
<polyline fill="none" stroke="gray" points="140,-117.75 140,-139.25"/>
<text text-anchor="middle" x="196" y="-125.75" font-family="JetBrains Mono" font-size="10.00">[0x6249d9759500]</text>
</g>
<!-- p0x6249d9758350 -->
<g id="node2" class="node">
<title>p0x6249d9758350</title>
<path fill="none" stroke="gray" d="M12,-0.5C12,-0.5 106,-0.5 106,-0.5 112,-0.5 118,-6.5 118,-12.5 118,-12.5 118,-53 118,-53 118,-59 112,-65 106,-65 106,-65 12,-65 12,-65 6,-65 0,-59 0,-53 0,-53 0,-12.5 0,-12.5 0,-6.5 6,-0.5 12,-0.5"/>
<text text-anchor="middle" x="59" y="-51.5" font-family="JetBrains Mono" font-size="10.00">[0x6249d9758350]</text>
<polyline fill="none" stroke="gray" points="0,-43.5 118,-43.5"/>
<text text-anchor="middle" x="59" y="-30" font-family="JetBrains Mono" font-size="10.00">data = [Bebra228]</text>
<polyline fill="none" stroke="gray" points="0,-22 118,-22"/>
<text text-anchor="middle" x="29.5" y="-8.5" font-family="JetBrains Mono" font-size="10.00">[(nil)]</text>
<polyline fill="none" stroke="gray" points="59,-0.5 59,-22"/>
<text text-anchor="middle" x="88.5" y="-8.5" font-family="JetBrains Mono" font-size="10.00">[(nil)]</text>
</g>
<!-- p0x6249d9759570&#45;&gt;p0x6249d9758350 -->
<g id="edge1" class="edge">
<title>p0x6249d9759570:l&#45;&gt;p0x6249d9758350</title>
<path fill="none" stroke="green" stroke-width="2" stroke-dasharray="5,2" d="M84,-117.25C84,-117.25 76.98,-93.82 70.39,-71.78"/>
<polygon fill="green" stroke="green" stroke-width="2" points="71.81,-71.65 69.32,-68.22 69.13,-72.45 71.81,-71.65"/>
<text text-anchor="middle" x="89.1" y="-85.95" font-family="Times,serif" font-size="14.00">NO</text>
</g>
<!-- p0x6249d9759500 -->
<g id="node3" class="node">
<title>p0x6249d9759500</title>
<path fill="none" stroke="gray" d="M159,-0.5C159,-0.5 283,-0.5 283,-0.5 289,-0.5 295,-6.5 295,-12.5 295,-12.5 295,-53 295,-53 295,-59 289,-65 283,-65 283,-65 159,-65 159,-65 153,-65 147,-59 147,-53 147,-53 147,-12.5 147,-12.5 147,-6.5 153,-0.5 159,-0.5"/>
<text text-anchor="middle" x="221" y="-51.5" font-family="JetBrains Mono" font-size="10.00">[0x6249d9759500]</text>
<polyline fill="none" stroke="gray" points="147,-43.5 295,-43.5"/>
<text text-anchor="middle" x="221" y="-30" font-family="JetBrains Mono" font-size="10.00">data = [max_timoshkin]</text>
<polyline fill="none" stroke="gray" points="147,-22 295,-22"/>
<text text-anchor="middle" x="184" y="-8.5" font-family="JetBrains Mono" font-size="10.00">[(nil)]</text>
<polyline fill="none" stroke="gray" points="221,-0.5 221,-22"/>
<text text-anchor="middle" x="258" y="-8.5" font-family="JetBrains Mono" font-size="10.00">[(nil)]</text>
</g>
<!-- p0x6249d9759570&#45;&gt;p0x6249d9759500 -->
<g id="edge2" class="edge">
<title>p0x6249d9759570:r&#45;&gt;p0x6249d9759500</title>
<path fill="none" stroke="green" stroke-width="2" stroke-dasharray="5,2" d="M196,-117.25C196,-117.25 203.02,-93.82 209.61,-71.78"/>
<polygon fill="green" stroke="green" stroke-width="2" points="210.87,-72.45 210.68,-68.22 208.19,-71.65 210.87,-72.45"/>
<text text-anchor="middle" x="218.28" y="-85.95" font-family="Times,serif" font-size="14.00">YES</text>
</g>
</g>
</svg>
