<?xml version="1.0" encoding="UTF-8" standalone="no"?>
<!DOCTYPE svg PUBLIC "-//W3C//DTD SVG 1.1//EN"
 "http://www.w3.org/Graphics/SVG/1.1/DTD/svg11.dtd">
<!-- Generated by graphviz version 12.1.2 (0)
 -->
<!-- Title: binaryTree Pages: 1 -->
<svg width="1910pt" height="777pt"
 viewBox="0.00 0.00 1910.00 777.00" xmlns="http://www.w3.org/2000/svg" xmlns:xlink="http://www.w3.org/1999/xlink">
<g id="graph0" class="graph" transform="scale(1 1) rotate(0) translate(4 773)">
<title>binaryTree</title>
<polygon fill="white" stroke="none" points="-4,4 -4,-773 1906,-773 1906,4 -4,4"/>
<!-- p0x58c775cbdbe0 -->
<g id="node1" class="node">
<title>p0x58c775cbdbe0</title>
<path fill="none" stroke="gray" d="M1442,-704C1442,-704 1642,-704 1642,-704 1648,-704 1654,-710 1654,-716 1654,-716 1654,-756.5 1654,-756.5 1654,-762.5 1648,-768.5 1642,-768.5 1642,-768.5 1442,-768.5 1442,-768.5 1436,-768.5 1430,-762.5 1430,-756.5 1430,-756.5 1430,-716 1430,-716 1430,-710 1436,-704 1442,-704"/>
<text text-anchor="middle" x="1542" y="-755" font-family="JetBrains Mono" font-size="10.00">[0x58c775cbdbe0]</text>
<polyline fill="none" stroke="gray" points="1430,-747 1654,-747"/>
<text text-anchor="middle" x="1542" y="-733.5" font-family="JetBrains Mono" font-size="10.00">data = [квадробер]</text>
<polyline fill="none" stroke="gray" points="1430,-725.5 1654,-725.5"/>
<text text-anchor="middle" x="1486" y="-712" font-family="JetBrains Mono" font-size="10.00">[0x58c775cbdcc0]</text>
<polyline fill="none" stroke="gray" points="1542,-704 1542,-725.5"/>
<text text-anchor="middle" x="1598" y="-712" font-family="JetBrains Mono" font-size="10.00">[0x58c775cbf9a0]</text>
</g>
<!-- p0x58c775cbdcc0 -->
<g id="node2" class="node">
<title>p0x58c775cbdcc0</title>
<path fill="none" stroke="gray" d="M1106,-586.75C1106,-586.75 1306,-586.75 1306,-586.75 1312,-586.75 1318,-592.75 1318,-598.75 1318,-598.75 1318,-639.25 1318,-639.25 1318,-645.25 1312,-651.25 1306,-651.25 1306,-651.25 1106,-651.25 1106,-651.25 1100,-651.25 1094,-645.25 1094,-639.25 1094,-639.25 1094,-598.75 1094,-598.75 1094,-592.75 1100,-586.75 1106,-586.75"/>
<text text-anchor="middle" x="1206" y="-637.75" font-family="JetBrains Mono" font-size="10.00">[0x58c775cbdcc0]</text>
<polyline fill="none" stroke="gray" points="1094,-629.75 1318,-629.75"/>
<text text-anchor="middle" x="1206" y="-616.25" font-family="JetBrains Mono" font-size="10.00">data = [шарит_за_матан]</text>
<polyline fill="none" stroke="gray" points="1094,-608.25 1318,-608.25"/>
<text text-anchor="middle" x="1150" y="-594.75" font-family="JetBrains Mono" font-size="10.00">[0x58c775cbe920]</text>
<polyline fill="none" stroke="gray" points="1206,-586.75 1206,-608.25"/>
<text text-anchor="middle" x="1262" y="-594.75" font-family="JetBrains Mono" font-size="10.00">[0x58c775cbf620]</text>
</g>
<!-- p0x58c775cbdbe0&#45;&gt;p0x58c775cbdcc0 -->
<g id="edge1" class="edge">
<title>p0x58c775cbdbe0:l&#45;&gt;p0x58c775cbdcc0</title>
<path fill="none" stroke="green" stroke-width="2" stroke-dasharray="5,2" d="M1429,-714.75C1429,-714.75 1350.54,-681.41 1286.7,-654.29"/>
<polygon fill="green" stroke="green" stroke-width="2" points="1287.58,-653.14 1283.35,-652.87 1286.49,-655.72 1287.58,-653.14"/>
<text text-anchor="middle" x="1367.37" y="-672.2" font-family="Times,serif" font-size="14.00">NO</text>
</g>
<!-- p0x58c775cbf9a0 -->
<g id="node23" class="node">
<title>p0x58c775cbf9a0</title>
<path fill="none" stroke="gray" d="M1569,-586.75C1569,-586.75 1769,-586.75 1769,-586.75 1775,-586.75 1781,-592.75 1781,-598.75 1781,-598.75 1781,-639.25 1781,-639.25 1781,-645.25 1775,-651.25 1769,-651.25 1769,-651.25 1569,-651.25 1569,-651.25 1563,-651.25 1557,-645.25 1557,-639.25 1557,-639.25 1557,-598.75 1557,-598.75 1557,-592.75 1563,-586.75 1569,-586.75"/>
<text text-anchor="middle" x="1669" y="-637.75" font-family="JetBrains Mono" font-size="10.00">[0x58c775cbf9a0]</text>
<polyline fill="none" stroke="gray" points="1557,-629.75 1781,-629.75"/>
<text text-anchor="middle" x="1669" y="-616.25" font-family="JetBrains Mono" font-size="10.00">data = [хвост_в_жопе]</text>
<polyline fill="none" stroke="gray" points="1557,-608.25 1781,-608.25"/>
<text text-anchor="middle" x="1613" y="-594.75" font-family="JetBrains Mono" font-size="10.00">[0x58c775cbfa10]</text>
<polyline fill="none" stroke="gray" points="1669,-586.75 1669,-608.25"/>
<text text-anchor="middle" x="1725" y="-594.75" font-family="JetBrains Mono" font-size="10.00">[0x58c775cbfd20]</text>
</g>
<!-- p0x58c775cbdbe0&#45;&gt;p0x58c775cbf9a0 -->
<g id="edge22" class="edge">
<title>p0x58c775cbdbe0:r&#45;&gt;p0x58c775cbf9a0</title>
<path fill="none" stroke="green" stroke-width="2" stroke-dasharray="5,2" d="M1655,-714.75C1655,-714.75 1659.44,-684.72 1663.32,-658.47"/>
<polygon fill="green" stroke="green" stroke-width="2" points="1664.7,-658.71 1663.9,-654.54 1661.93,-658.3 1664.7,-658.71"/>
<text text-anchor="middle" x="1674.33" y="-672.2" font-family="Times,serif" font-size="14.00">YES</text>
</g>
<!-- p0x58c775cbe920 -->
<g id="node3" class="node">
<title>p0x58c775cbe920</title>
<path fill="none" stroke="gray" d="M639,-469.5C639,-469.5 839,-469.5 839,-469.5 845,-469.5 851,-475.5 851,-481.5 851,-481.5 851,-522 851,-522 851,-528 845,-534 839,-534 839,-534 639,-534 639,-534 633,-534 627,-528 627,-522 627,-522 627,-481.5 627,-481.5 627,-475.5 633,-469.5 639,-469.5"/>
<text text-anchor="middle" x="739" y="-520.5" font-family="JetBrains Mono" font-size="10.00">[0x58c775cbe920]</text>
<polyline fill="none" stroke="gray" points="627,-512.5 851,-512.5"/>
<text text-anchor="middle" x="739" y="-499" font-family="JetBrains Mono" font-size="10.00">data = [всегда_спит]</text>
<polyline fill="none" stroke="gray" points="627,-491 851,-491"/>
<text text-anchor="middle" x="683" y="-477.5" font-family="JetBrains Mono" font-size="10.00">[0x58c775cbec00]</text>
<polyline fill="none" stroke="gray" points="739,-469.5 739,-491"/>
<text text-anchor="middle" x="795" y="-477.5" font-family="JetBrains Mono" font-size="10.00">[0x58c775cbf4d0]</text>
</g>
<!-- p0x58c775cbdcc0&#45;&gt;p0x58c775cbe920 -->
<g id="edge2" class="edge">
<title>p0x58c775cbdcc0:l&#45;&gt;p0x58c775cbe920</title>
<path fill="none" stroke="green" stroke-width="2" stroke-dasharray="5,2" d="M1093,-597.5C1093,-597.5 961.01,-562.17 858.22,-534.66"/>
<polygon fill="green" stroke="green" stroke-width="2" points="858.64,-533.32 854.42,-533.64 857.92,-536.03 858.64,-533.32"/>
<text text-anchor="middle" x="989" y="-554.95" font-family="Times,serif" font-size="14.00">NO</text>
</g>
<!-- p0x58c775cbf620 -->
<g id="node16" class="node">
<title>p0x58c775cbf620</title>
<path fill="none" stroke="gray" d="M1162,-469.5C1162,-469.5 1362,-469.5 1362,-469.5 1368,-469.5 1374,-475.5 1374,-481.5 1374,-481.5 1374,-522 1374,-522 1374,-528 1368,-534 1362,-534 1362,-534 1162,-534 1162,-534 1156,-534 1150,-528 1150,-522 1150,-522 1150,-481.5 1150,-481.5 1150,-475.5 1156,-469.5 1162,-469.5"/>
<text text-anchor="middle" x="1262" y="-520.5" font-family="JetBrains Mono" font-size="10.00">[0x58c775cbf620]</text>
<polyline fill="none" stroke="gray" points="1150,-512.5 1374,-512.5"/>
<text text-anchor="middle" x="1262" y="-499" font-family="JetBrains Mono" font-size="10.00">data = [molodoi_i_hui_bolshoi]</text>
<polyline fill="none" stroke="gray" points="1150,-491 1374,-491"/>
<text text-anchor="middle" x="1206" y="-477.5" font-family="JetBrains Mono" font-size="10.00">[0x58c775cbf690]</text>
<polyline fill="none" stroke="gray" points="1262,-469.5 1262,-491"/>
<text text-anchor="middle" x="1318" y="-477.5" font-family="JetBrains Mono" font-size="10.00">[0x58c775cbf930]</text>
</g>
<!-- p0x58c775cbdcc0&#45;&gt;p0x58c775cbf620 -->
<g id="edge15" class="edge">
<title>p0x58c775cbdcc0:r&#45;&gt;p0x58c775cbf620</title>
<path fill="none" stroke="green" stroke-width="2" stroke-dasharray="5,2" d="M1262,-586.25C1262,-586.25 1262,-563.02 1262,-541.06"/>
<polygon fill="green" stroke="green" stroke-width="2" points="1263.4,-541.34 1262,-537.34 1260.6,-541.34 1263.4,-541.34"/>
<text text-anchor="middle" x="1274.75" y="-554.95" font-family="Times,serif" font-size="14.00">YES</text>
</g>
<!-- p0x58c775cbec00 -->
<g id="node4" class="node">
<title>p0x58c775cbec00</title>
<path fill="none" stroke="gray" d="M402,-352.25C402,-352.25 602,-352.25 602,-352.25 608,-352.25 614,-358.25 614,-364.25 614,-364.25 614,-404.75 614,-404.75 614,-410.75 608,-416.75 602,-416.75 602,-416.75 402,-416.75 402,-416.75 396,-416.75 390,-410.75 390,-404.75 390,-404.75 390,-364.25 390,-364.25 390,-358.25 396,-352.25 402,-352.25"/>
<text text-anchor="middle" x="502" y="-403.25" font-family="JetBrains Mono" font-size="10.00">[0x58c775cbec00]</text>
<polyline fill="none" stroke="gray" points="390,-395.25 614,-395.25"/>
<text text-anchor="middle" x="502" y="-381.75" font-family="JetBrains Mono" font-size="10.00">data = [нихуя_не_просыпается]</text>
<polyline fill="none" stroke="gray" points="390,-373.75 614,-373.75"/>
<text text-anchor="middle" x="446" y="-360.25" font-family="JetBrains Mono" font-size="10.00">[0x58c775cbeee0]</text>
<polyline fill="none" stroke="gray" points="502,-352.25 502,-373.75"/>
<text text-anchor="middle" x="558" y="-360.25" font-family="JetBrains Mono" font-size="10.00">[0x58c775cbf460]</text>
</g>
<!-- p0x58c775cbe920&#45;&gt;p0x58c775cbec00 -->
<g id="edge3" class="edge">
<title>p0x58c775cbe920:l&#45;&gt;p0x58c775cbec00</title>
<path fill="none" stroke="green" stroke-width="2" stroke-dasharray="5,2" d="M626,-480.25C626,-480.25 583.98,-448.14 548.86,-421.31"/>
<polygon fill="green" stroke="green" stroke-width="2" points="549.72,-420.2 545.7,-418.89 548.02,-422.43 549.72,-420.2"/>
<text text-anchor="middle" x="596.39" y="-437.7" font-family="Times,serif" font-size="14.00">NO</text>
</g>
<!-- p0x58c775cbf4d0 -->
<g id="node13" class="node">
<title>p0x58c775cbf4d0</title>
<path fill="none" stroke="gray" d="M695,-352.25C695,-352.25 895,-352.25 895,-352.25 901,-352.25 907,-358.25 907,-364.25 907,-364.25 907,-404.75 907,-404.75 907,-410.75 901,-416.75 895,-416.75 895,-416.75 695,-416.75 695,-416.75 689,-416.75 683,-410.75 683,-404.75 683,-404.75 683,-364.25 683,-364.25 683,-358.25 689,-352.25 695,-352.25"/>
<text text-anchor="middle" x="795" y="-403.25" font-family="JetBrains Mono" font-size="10.00">[0x58c775cbf4d0]</text>
<polyline fill="none" stroke="gray" points="683,-395.25 907,-395.25"/>
<text text-anchor="middle" x="795" y="-381.75" font-family="JetBrains Mono" font-size="10.00">data = [можно_трахать]</text>
<polyline fill="none" stroke="gray" points="683,-373.75 907,-373.75"/>
<text text-anchor="middle" x="739" y="-360.25" font-family="JetBrains Mono" font-size="10.00">[0x58c775cbf540]</text>
<polyline fill="none" stroke="gray" points="795,-352.25 795,-373.75"/>
<text text-anchor="middle" x="851" y="-360.25" font-family="JetBrains Mono" font-size="10.00">[0x58c775cbf5b0]</text>
</g>
<!-- p0x58c775cbe920&#45;&gt;p0x58c775cbf4d0 -->
<g id="edge12" class="edge">
<title>p0x58c775cbe920:r&#45;&gt;p0x58c775cbf4d0</title>
<path fill="none" stroke="green" stroke-width="2" stroke-dasharray="5,2" d="M795,-469C795,-469 795,-445.77 795,-423.81"/>
<polygon fill="green" stroke="green" stroke-width="2" points="796.4,-424.09 795,-420.09 793.6,-424.09 796.4,-424.09"/>
<text text-anchor="middle" x="807.75" y="-437.7" font-family="Times,serif" font-size="14.00">YES</text>
</g>
<!-- p0x58c775cbeee0 -->
<g id="node5" class="node">
<title>p0x58c775cbeee0</title>
<path fill="none" stroke="gray" d="M243,-235C243,-235 443,-235 443,-235 449,-235 455,-241 455,-247 455,-247 455,-287.5 455,-287.5 455,-293.5 449,-299.5 443,-299.5 443,-299.5 243,-299.5 243,-299.5 237,-299.5 231,-293.5 231,-287.5 231,-287.5 231,-247 231,-247 231,-241 237,-235 243,-235"/>
<text text-anchor="middle" x="343" y="-286" font-family="JetBrains Mono" font-size="10.00">[0x58c775cbeee0]</text>
<polyline fill="none" stroke="gray" points="231,-278 455,-278"/>
<text text-anchor="middle" x="343" y="-264.5" font-family="JetBrains Mono" font-size="10.00">data = [любит_трахать_пацанов]</text>
<polyline fill="none" stroke="gray" points="231,-256.5 455,-256.5"/>
<text text-anchor="middle" x="287" y="-243" font-family="JetBrains Mono" font-size="10.00">[0x58c775cbf1c0]</text>
<polyline fill="none" stroke="gray" points="343,-235 343,-256.5"/>
<text text-anchor="middle" x="399" y="-243" font-family="JetBrains Mono" font-size="10.00">[0x58c775cbf310]</text>
</g>
<!-- p0x58c775cbec00&#45;&gt;p0x58c775cbeee0 -->
<g id="edge4" class="edge">
<title>p0x58c775cbec00:l&#45;&gt;p0x58c775cbeee0</title>
<path fill="none" stroke="green" stroke-width="2" stroke-dasharray="5,2" d="M389,-363C389,-363 374.17,-332.46 361.35,-306.05"/>
<polygon fill="green" stroke="green" stroke-width="2" points="362.65,-305.51 359.64,-302.52 360.13,-306.73 362.65,-305.51"/>
<text text-anchor="middle" x="384.62" y="-320.45" font-family="Times,serif" font-size="14.00">NO</text>
</g>
<!-- p0x58c775cbf460 -->
<g id="node12" class="node">
<title>p0x58c775cbf460</title>
<path fill="none" stroke="gray" d="M496,-235C496,-235 620,-235 620,-235 626,-235 632,-241 632,-247 632,-247 632,-287.5 632,-287.5 632,-293.5 626,-299.5 620,-299.5 620,-299.5 496,-299.5 496,-299.5 490,-299.5 484,-293.5 484,-287.5 484,-287.5 484,-247 484,-247 484,-241 490,-235 496,-235"/>
<text text-anchor="middle" x="558" y="-286" font-family="JetBrains Mono" font-size="10.00">[0x58c775cbf460]</text>
<polyline fill="none" stroke="gray" points="484,-278 632,-278"/>
<text text-anchor="middle" x="558" y="-264.5" font-family="JetBrains Mono" font-size="10.00">data = [ваня_лаврущев]</text>
<polyline fill="none" stroke="gray" points="484,-256.5 632,-256.5"/>
<text text-anchor="middle" x="521" y="-243" font-family="JetBrains Mono" font-size="10.00">[(nil)]</text>
<polyline fill="none" stroke="gray" points="558,-235 558,-256.5"/>
<text text-anchor="middle" x="595" y="-243" font-family="JetBrains Mono" font-size="10.00">[(nil)]</text>
</g>
<!-- p0x58c775cbec00&#45;&gt;p0x58c775cbf460 -->
<g id="edge11" class="edge">
<title>p0x58c775cbec00:r&#45;&gt;p0x58c775cbf460</title>
<path fill="none" stroke="green" stroke-width="2" stroke-dasharray="5,2" d="M558,-351.75C558,-351.75 558,-328.52 558,-306.56"/>
<polygon fill="green" stroke="green" stroke-width="2" points="559.4,-306.84 558,-302.84 556.6,-306.84 559.4,-306.84"/>
<text text-anchor="middle" x="570.75" y="-320.45" font-family="Times,serif" font-size="14.00">YES</text>
</g>
<!-- p0x58c775cbf1c0 -->
<g id="node6" class="node">
<title>p0x58c775cbf1c0</title>
<path fill="none" stroke="gray" d="M58,-117.75C58,-117.75 260,-117.75 260,-117.75 266,-117.75 272,-123.75 272,-129.75 272,-129.75 272,-170.25 272,-170.25 272,-176.25 266,-182.25 260,-182.25 260,-182.25 58,-182.25 58,-182.25 52,-182.25 46,-176.25 46,-170.25 46,-170.25 46,-129.75 46,-129.75 46,-123.75 52,-117.75 58,-117.75"/>
<text text-anchor="middle" x="159" y="-168.75" font-family="JetBrains Mono" font-size="10.00">[0x58c775cbf1c0]</text>
<polyline fill="none" stroke="gray" points="46,-160.75 272,-160.75"/>
<text text-anchor="middle" x="159" y="-147.25" font-family="JetBrains Mono" font-size="10.00">data = [постоянно_стонет_как_сучка]</text>
<polyline fill="none" stroke="gray" points="46,-139.25 272,-139.25"/>
<text text-anchor="middle" x="102.5" y="-125.75" font-family="JetBrains Mono" font-size="10.00">[0x58c775cbf230]</text>
<polyline fill="none" stroke="gray" points="159,-117.75 159,-139.25"/>
<text text-anchor="middle" x="215.5" y="-125.75" font-family="JetBrains Mono" font-size="10.00">[0x58c775cbf2a0]</text>
</g>
<!-- p0x58c775cbeee0&#45;&gt;p0x58c775cbf1c0 -->
<g id="edge5" class="edge">
<title>p0x58c775cbeee0:l&#45;&gt;p0x58c775cbf1c0</title>
<path fill="none" stroke="green" stroke-width="2" stroke-dasharray="5,2" d="M230,-245.75C230,-245.75 206.72,-214.69 186.83,-188.14"/>
<polygon fill="green" stroke="green" stroke-width="2" points="187.98,-187.33 184.46,-184.97 185.74,-189.01 187.98,-187.33"/>
<text text-anchor="middle" x="217.53" y="-203.2" font-family="Times,serif" font-size="14.00">NO</text>
</g>
<!-- p0x58c775cbf310 -->
<g id="node9" class="node">
<title>p0x58c775cbf310</title>
<path fill="none" stroke="gray" d="M342,-117.75C342,-117.75 542,-117.75 542,-117.75 548,-117.75 554,-123.75 554,-129.75 554,-129.75 554,-170.25 554,-170.25 554,-176.25 548,-182.25 542,-182.25 542,-182.25 342,-182.25 342,-182.25 336,-182.25 330,-176.25 330,-170.25 330,-170.25 330,-129.75 330,-129.75 330,-123.75 336,-117.75 342,-117.75"/>
<text text-anchor="middle" x="442" y="-168.75" font-family="JetBrains Mono" font-size="10.00">[0x58c775cbf310]</text>
<polyline fill="none" stroke="gray" points="330,-160.75 554,-160.75"/>
<text text-anchor="middle" x="442" y="-147.25" font-family="JetBrains Mono" font-size="10.00">data = [маленьких_пацанов?]</text>
<polyline fill="none" stroke="gray" points="330,-139.25 554,-139.25"/>
<text text-anchor="middle" x="386" y="-125.75" font-family="JetBrains Mono" font-size="10.00">[0x58c775cbf380]</text>
<polyline fill="none" stroke="gray" points="442,-117.75 442,-139.25"/>
<text text-anchor="middle" x="498" y="-125.75" font-family="JetBrains Mono" font-size="10.00">[0x58c775cbf3f0]</text>
</g>
<!-- p0x58c775cbeee0&#45;&gt;p0x58c775cbf310 -->
<g id="edge8" class="edge">
<title>p0x58c775cbeee0:r&#45;&gt;p0x58c775cbf310</title>
<path fill="none" stroke="green" stroke-width="2" stroke-dasharray="5,2" d="M399,-234.5C399,-234.5 411.17,-210.87 422.56,-188.75"/>
<polygon fill="green" stroke="green" stroke-width="2" points="423.77,-189.46 424.36,-185.26 421.28,-188.17 423.77,-189.46"/>
<text text-anchor="middle" x="428.13" y="-203.2" font-family="Times,serif" font-size="14.00">YES</text>
</g>
<!-- p0x58c775cbf230 -->
<g id="node7" class="node">
<title>p0x58c775cbf230</title>
<path fill="none" stroke="gray" d="M12,-0.5C12,-0.5 106,-0.5 106,-0.5 112,-0.5 118,-6.5 118,-12.5 118,-12.5 118,-53 118,-53 118,-59 112,-65 106,-65 106,-65 12,-65 12,-65 6,-65 0,-59 0,-53 0,-53 0,-12.5 0,-12.5 0,-6.5 6,-0.5 12,-0.5"/>
<text text-anchor="middle" x="59" y="-51.5" font-family="JetBrains Mono" font-size="10.00">[0x58c775cbf230]</text>
<polyline fill="none" stroke="gray" points="0,-43.5 118,-43.5"/>
<text text-anchor="middle" x="59" y="-30" font-family="JetBrains Mono" font-size="10.00">data = [Bebra228]</text>
<polyline fill="none" stroke="gray" points="0,-22 118,-22"/>
<text text-anchor="middle" x="29.5" y="-8.5" font-family="JetBrains Mono" font-size="10.00">[(nil)]</text>
<polyline fill="none" stroke="gray" points="59,-0.5 59,-22"/>
<text text-anchor="middle" x="88.5" y="-8.5" font-family="JetBrains Mono" font-size="10.00">[(nil)]</text>
</g>
<!-- p0x58c775cbf1c0&#45;&gt;p0x58c775cbf230 -->
<g id="edge6" class="edge">
<title>p0x58c775cbf1c0:l&#45;&gt;p0x58c775cbf230</title>
<path fill="none" stroke="green" stroke-width="2" stroke-dasharray="5,2" d="M45,-128.5C45,-128.5 46,-117.25 46,-117.25 46,-117.25 49.62,-94.02 53.04,-72.06"/>
<polygon fill="green" stroke="green" stroke-width="2" points="54.39,-72.48 53.62,-68.31 51.62,-72.05 54.39,-72.48"/>
<text text-anchor="middle" x="61.45" y="-85.95" font-family="Times,serif" font-size="14.00">NO</text>
</g>
<!-- p0x58c775cbf2a0 -->
<g id="node8" class="node">
<title>p0x58c775cbf2a0</title>
<path fill="none" stroke="gray" d="M159,-0.5C159,-0.5 271,-0.5 271,-0.5 277,-0.5 283,-6.5 283,-12.5 283,-12.5 283,-53 283,-53 283,-59 277,-65 271,-65 271,-65 159,-65 159,-65 153,-65 147,-59 147,-53 147,-53 147,-12.5 147,-12.5 147,-6.5 153,-0.5 159,-0.5"/>
<text text-anchor="middle" x="215" y="-51.5" font-family="JetBrains Mono" font-size="10.00">[0x58c775cbf2a0]</text>
<polyline fill="none" stroke="gray" points="147,-43.5 283,-43.5"/>
<text text-anchor="middle" x="215" y="-30" font-family="JetBrains Mono" font-size="10.00">data = [макс_зубаха]</text>
<polyline fill="none" stroke="gray" points="147,-22 283,-22"/>
<text text-anchor="middle" x="181" y="-8.5" font-family="JetBrains Mono" font-size="10.00">[(nil)]</text>
<polyline fill="none" stroke="gray" points="215,-0.5 215,-22"/>
<text text-anchor="middle" x="249" y="-8.5" font-family="JetBrains Mono" font-size="10.00">[(nil)]</text>
</g>
<!-- p0x58c775cbf1c0&#45;&gt;p0x58c775cbf2a0 -->
<g id="edge7" class="edge">
<title>p0x58c775cbf1c0:r&#45;&gt;p0x58c775cbf2a0</title>
<path fill="none" stroke="green" stroke-width="2" stroke-dasharray="5,2" d="M215.5,-117.25C215.5,-117.25 215.36,-94.02 215.23,-72.06"/>
<polygon fill="green" stroke="green" stroke-width="2" points="216.63,-72.34 215.21,-68.34 213.83,-72.35 216.63,-72.34"/>
<text text-anchor="middle" x="228.14" y="-85.95" font-family="Times,serif" font-size="14.00">YES</text>
</g>
<!-- p0x58c775cbf380 -->
<g id="node10" class="node">
<title>p0x58c775cbf380</title>
<path fill="none" stroke="gray" d="M324,-0.5C324,-0.5 448,-0.5 448,-0.5 454,-0.5 460,-6.5 460,-12.5 460,-12.5 460,-53 460,-53 460,-59 454,-65 448,-65 448,-65 324,-65 324,-65 318,-65 312,-59 312,-53 312,-53 312,-12.5 312,-12.5 312,-6.5 318,-0.5 324,-0.5"/>
<text text-anchor="middle" x="386" y="-51.5" font-family="JetBrains Mono" font-size="10.00">[0x58c775cbf380]</text>
<polyline fill="none" stroke="gray" points="312,-43.5 460,-43.5"/>
<text text-anchor="middle" x="386" y="-30" font-family="JetBrains Mono" font-size="10.00">data = [макс_тимошкин]</text>
<polyline fill="none" stroke="gray" points="312,-22 460,-22"/>
<text text-anchor="middle" x="349" y="-8.5" font-family="JetBrains Mono" font-size="10.00">[(nil)]</text>
<polyline fill="none" stroke="gray" points="386,-0.5 386,-22"/>
<text text-anchor="middle" x="423" y="-8.5" font-family="JetBrains Mono" font-size="10.00">[(nil)]</text>
</g>
<!-- p0x58c775cbf310&#45;&gt;p0x58c775cbf380 -->
<g id="edge9" class="edge">
<title>p0x58c775cbf310:l&#45;&gt;p0x58c775cbf380</title>
<path fill="none" stroke="green" stroke-width="2" stroke-dasharray="5,2" d="M386,-117.25C386,-117.25 386,-94.02 386,-72.06"/>
<polygon fill="green" stroke="green" stroke-width="2" points="387.4,-72.34 386,-68.34 384.6,-72.34 387.4,-72.34"/>
<text text-anchor="middle" x="396.5" y="-85.95" font-family="Times,serif" font-size="14.00">NO</text>
</g>
<!-- p0x58c775cbf3f0 -->
<g id="node11" class="node">
<title>p0x58c775cbf3f0</title>
<path fill="none" stroke="gray" d="M501,-0.5C501,-0.5 593,-0.5 593,-0.5 599,-0.5 605,-6.5 605,-12.5 605,-12.5 605,-53 605,-53 605,-59 599,-65 593,-65 593,-65 501,-65 501,-65 495,-65 489,-59 489,-53 489,-53 489,-12.5 489,-12.5 489,-6.5 495,-0.5 501,-0.5"/>
<text text-anchor="middle" x="547" y="-51.5" font-family="JetBrains Mono" font-size="10.00">[0x58c775cbf3f0]</text>
<polyline fill="none" stroke="gray" points="489,-43.5 605,-43.5"/>
<text text-anchor="middle" x="547" y="-30" font-family="JetBrains Mono" font-size="10.00">data = [p.diddy]</text>
<polyline fill="none" stroke="gray" points="489,-22 605,-22"/>
<text text-anchor="middle" x="518" y="-8.5" font-family="JetBrains Mono" font-size="10.00">[(nil)]</text>
<polyline fill="none" stroke="gray" points="547,-0.5 547,-22"/>
<text text-anchor="middle" x="576" y="-8.5" font-family="JetBrains Mono" font-size="10.00">[(nil)]</text>
</g>
<!-- p0x58c775cbf310&#45;&gt;p0x58c775cbf3f0 -->
<g id="edge10" class="edge">
<title>p0x58c775cbf310:r&#45;&gt;p0x58c775cbf3f0</title>
<path fill="none" stroke="green" stroke-width="2" stroke-dasharray="5,2" d="M555,-128.5C555,-128.5 552.46,-98.47 550.25,-72.22"/>
<polygon fill="green" stroke="green" stroke-width="2" points="551.65,-72.18 549.92,-68.32 548.86,-72.42 551.65,-72.18"/>
<text text-anchor="middle" x="565.16" y="-85.95" font-family="Times,serif" font-size="14.00">YES</text>
</g>
<!-- p0x58c775cbf540 -->
<g id="node14" class="node">
<title>p0x58c775cbf540</title>
<path fill="none" stroke="gray" d="M673,-235C673,-235 765,-235 765,-235 771,-235 777,-241 777,-247 777,-247 777,-287.5 777,-287.5 777,-293.5 771,-299.5 765,-299.5 765,-299.5 673,-299.5 673,-299.5 667,-299.5 661,-293.5 661,-287.5 661,-287.5 661,-247 661,-247 661,-241 667,-235 673,-235"/>
<text text-anchor="middle" x="719" y="-286" font-family="JetBrains Mono" font-size="10.00">[0x58c775cbf540]</text>
<polyline fill="none" stroke="gray" points="661,-278 777,-278"/>
<text text-anchor="middle" x="719" y="-264.5" font-family="JetBrains Mono" font-size="10.00">data = [кулиев]</text>
<polyline fill="none" stroke="gray" points="661,-256.5 777,-256.5"/>
<text text-anchor="middle" x="690" y="-243" font-family="JetBrains Mono" font-size="10.00">[(nil)]</text>
<polyline fill="none" stroke="gray" points="719,-235 719,-256.5"/>
<text text-anchor="middle" x="748" y="-243" font-family="JetBrains Mono" font-size="10.00">[(nil)]</text>
</g>
<!-- p0x58c775cbf4d0&#45;&gt;p0x58c775cbf540 -->
<g id="edge13" class="edge">
<title>p0x58c775cbf4d0:l&#45;&gt;p0x58c775cbf540</title>
<path fill="none" stroke="green" stroke-width="2" stroke-dasharray="5,2" d="M739,-351.75C739,-351.75 733.44,-328.52 728.18,-306.56"/>
<polygon fill="green" stroke="green" stroke-width="2" points="729.56,-306.33 727.27,-302.76 726.84,-306.98 729.56,-306.33"/>
<text text-anchor="middle" x="745.18" y="-320.45" font-family="Times,serif" font-size="14.00">NO</text>
</g>
<!-- p0x58c775cbf5b0 -->
<g id="node15" class="node">
<title>p0x58c775cbf5b0</title>
<path fill="none" stroke="gray" d="M818,-235C818,-235 924,-235 924,-235 930,-235 936,-241 936,-247 936,-247 936,-287.5 936,-287.5 936,-293.5 930,-299.5 924,-299.5 924,-299.5 818,-299.5 818,-299.5 812,-299.5 806,-293.5 806,-287.5 806,-287.5 806,-247 806,-247 806,-241 812,-235 818,-235"/>
<text text-anchor="middle" x="871" y="-286" font-family="JetBrains Mono" font-size="10.00">[0x58c775cbf5b0]</text>
<polyline fill="none" stroke="gray" points="806,-278 936,-278"/>
<text text-anchor="middle" x="871" y="-264.5" font-family="JetBrains Mono" font-size="10.00">data = [полторашка]</text>
<polyline fill="none" stroke="gray" points="806,-256.5 936,-256.5"/>
<text text-anchor="middle" x="838.5" y="-243" font-family="JetBrains Mono" font-size="10.00">[(nil)]</text>
<polyline fill="none" stroke="gray" points="871,-235 871,-256.5"/>
<text text-anchor="middle" x="903.5" y="-243" font-family="JetBrains Mono" font-size="10.00">[(nil)]</text>
</g>
<!-- p0x58c775cbf4d0&#45;&gt;p0x58c775cbf5b0 -->
<g id="edge14" class="edge">
<title>p0x58c775cbf4d0:r&#45;&gt;p0x58c775cbf5b0</title>
<path fill="none" stroke="green" stroke-width="2" stroke-dasharray="5,2" d="M851,-351.75C851,-351.75 856.56,-328.52 861.82,-306.56"/>
<polygon fill="green" stroke="green" stroke-width="2" points="863.16,-306.98 862.73,-302.76 860.44,-306.33 863.16,-306.98"/>
<text text-anchor="middle" x="871.37" y="-320.45" font-family="Times,serif" font-size="14.00">YES</text>
</g>
<!-- p0x58c775cbf690 -->
<g id="node17" class="node">
<title>p0x58c775cbf690</title>
<path fill="none" stroke="gray" d="M1033,-352.25C1033,-352.25 1233,-352.25 1233,-352.25 1239,-352.25 1245,-358.25 1245,-364.25 1245,-364.25 1245,-404.75 1245,-404.75 1245,-410.75 1239,-416.75 1233,-416.75 1233,-416.75 1033,-416.75 1033,-416.75 1027,-416.75 1021,-410.75 1021,-404.75 1021,-404.75 1021,-364.25 1021,-364.25 1021,-358.25 1027,-352.25 1033,-352.25"/>
<text text-anchor="middle" x="1133" y="-403.25" font-family="JetBrains Mono" font-size="10.00">[0x58c775cbf690]</text>
<polyline fill="none" stroke="gray" points="1021,-395.25 1245,-395.25"/>
<text text-anchor="middle" x="1133" y="-381.75" font-family="JetBrains Mono" font-size="10.00">data = [здравый_мужик]</text>
<polyline fill="none" stroke="gray" points="1021,-373.75 1245,-373.75"/>
<text text-anchor="middle" x="1077" y="-360.25" font-family="JetBrains Mono" font-size="10.00">[0x58c775cbf700]</text>
<polyline fill="none" stroke="gray" points="1133,-352.25 1133,-373.75"/>
<text text-anchor="middle" x="1189" y="-360.25" font-family="JetBrains Mono" font-size="10.00">[0x58c775cbf8c0]</text>
</g>
<!-- p0x58c775cbf620&#45;&gt;p0x58c775cbf690 -->
<g id="edge16" class="edge">
<title>p0x58c775cbf620:l&#45;&gt;p0x58c775cbf690</title>
<path fill="none" stroke="green" stroke-width="2" stroke-dasharray="5,2" d="M1149,-480.25C1149,-480.25 1143.93,-450.22 1139.5,-423.97"/>
<polygon fill="green" stroke="green" stroke-width="2" points="1140.88,-423.75 1138.83,-420.04 1138.12,-424.21 1140.88,-423.75"/>
<text text-anchor="middle" x="1154.32" y="-437.7" font-family="Times,serif" font-size="14.00">NO</text>
</g>
<!-- p0x58c775cbf930 -->
<g id="node22" class="node">
<title>p0x58c775cbf930</title>
<path fill="none" stroke="gray" d="M1286,-352.25C1286,-352.25 1404,-352.25 1404,-352.25 1410,-352.25 1416,-358.25 1416,-364.25 1416,-364.25 1416,-404.75 1416,-404.75 1416,-410.75 1410,-416.75 1404,-416.75 1404,-416.75 1286,-416.75 1286,-416.75 1280,-416.75 1274,-410.75 1274,-404.75 1274,-404.75 1274,-364.25 1274,-364.25 1274,-358.25 1280,-352.25 1286,-352.25"/>
<text text-anchor="middle" x="1345" y="-403.25" font-family="JetBrains Mono" font-size="10.00">[0x58c775cbf930]</text>
<polyline fill="none" stroke="gray" points="1274,-395.25 1416,-395.25"/>
<text text-anchor="middle" x="1345" y="-381.75" font-family="JetBrains Mono" font-size="10.00">data = [Nikita_Veida]</text>
<polyline fill="none" stroke="gray" points="1274,-373.75 1416,-373.75"/>
<text text-anchor="middle" x="1309.5" y="-360.25" font-family="JetBrains Mono" font-size="10.00">[(nil)]</text>
<polyline fill="none" stroke="gray" points="1345,-352.25 1345,-373.75"/>
<text text-anchor="middle" x="1380.5" y="-360.25" font-family="JetBrains Mono" font-size="10.00">[(nil)]</text>
</g>
<!-- p0x58c775cbf620&#45;&gt;p0x58c775cbf930 -->
<g id="edge21" class="edge">
<title>p0x58c775cbf620:r&#45;&gt;p0x58c775cbf930</title>
<path fill="none" stroke="green" stroke-width="2" stroke-dasharray="5,2" d="M1318,-469C1318,-469 1325.58,-445.57 1332.7,-423.53"/>
<polygon fill="green" stroke="green" stroke-width="2" points="1333.96,-424.18 1333.86,-419.95 1331.3,-423.32 1333.96,-424.18"/>
<text text-anchor="middle" x="1341.04" y="-437.7" font-family="Times,serif" font-size="14.00">YES</text>
</g>
<!-- p0x58c775cbf700 -->
<g id="node18" class="node">
<title>p0x58c775cbf700</title>
<path fill="none" stroke="gray" d="M977,-235C977,-235 1177,-235 1177,-235 1183,-235 1189,-241 1189,-247 1189,-247 1189,-287.5 1189,-287.5 1189,-293.5 1183,-299.5 1177,-299.5 1177,-299.5 977,-299.5 977,-299.5 971,-299.5 965,-293.5 965,-287.5 965,-287.5 965,-247 965,-247 965,-241 971,-235 977,-235"/>
<text text-anchor="middle" x="1077" y="-286" font-family="JetBrains Mono" font-size="10.00">[0x58c775cbf700]</text>
<polyline fill="none" stroke="gray" points="965,-278 1189,-278"/>
<text text-anchor="middle" x="1077" y="-264.5" font-family="JetBrains Mono" font-size="10.00">data = [сосала_хуй]</text>
<polyline fill="none" stroke="gray" points="965,-256.5 1189,-256.5"/>
<text text-anchor="middle" x="1021" y="-243" font-family="JetBrains Mono" font-size="10.00">[0x58c775cbf7e0]</text>
<polyline fill="none" stroke="gray" points="1077,-235 1077,-256.5"/>
<text text-anchor="middle" x="1133" y="-243" font-family="JetBrains Mono" font-size="10.00">[0x58c775cbf850]</text>
</g>
<!-- p0x58c775cbf690&#45;&gt;p0x58c775cbf700 -->
<g id="edge17" class="edge">
<title>p0x58c775cbf690:l&#45;&gt;p0x58c775cbf700</title>
<path fill="none" stroke="green" stroke-width="2" stroke-dasharray="5,2" d="M1077,-351.75C1077,-351.75 1077,-328.52 1077,-306.56"/>
<polygon fill="green" stroke="green" stroke-width="2" points="1078.4,-306.84 1077,-302.84 1075.6,-306.84 1078.4,-306.84"/>
<text text-anchor="middle" x="1087.5" y="-320.45" font-family="Times,serif" font-size="14.00">NO</text>
</g>
<!-- p0x58c775cbf8c0 -->
<g id="node21" class="node">
<title>p0x58c775cbf8c0</title>
<path fill="none" stroke="gray" d="M1230,-235C1230,-235 1322,-235 1322,-235 1328,-235 1334,-241 1334,-247 1334,-247 1334,-287.5 1334,-287.5 1334,-293.5 1328,-299.5 1322,-299.5 1322,-299.5 1230,-299.5 1230,-299.5 1224,-299.5 1218,-293.5 1218,-287.5 1218,-287.5 1218,-247 1218,-247 1218,-241 1224,-235 1230,-235"/>
<text text-anchor="middle" x="1276" y="-286" font-family="JetBrains Mono" font-size="10.00">[0x58c775cbf8c0]</text>
<polyline fill="none" stroke="gray" points="1218,-278 1334,-278"/>
<text text-anchor="middle" x="1276" y="-264.5" font-family="JetBrains Mono" font-size="10.00">data = [подлес]</text>
<polyline fill="none" stroke="gray" points="1218,-256.5 1334,-256.5"/>
<text text-anchor="middle" x="1247" y="-243" font-family="JetBrains Mono" font-size="10.00">[(nil)]</text>
<polyline fill="none" stroke="gray" points="1276,-235 1276,-256.5"/>
<text text-anchor="middle" x="1305" y="-243" font-family="JetBrains Mono" font-size="10.00">[(nil)]</text>
</g>
<!-- p0x58c775cbf690&#45;&gt;p0x58c775cbf8c0 -->
<g id="edge20" class="edge">
<title>p0x58c775cbf690:r&#45;&gt;p0x58c775cbf8c0</title>
<path fill="none" stroke="green" stroke-width="2" stroke-dasharray="5,2" d="M1246,-363C1246,-363 1255.59,-332.71 1263.92,-306.39"/>
<polygon fill="green" stroke="green" stroke-width="2" points="1265.22,-306.92 1265.1,-302.69 1262.55,-306.08 1265.22,-306.92"/>
<text text-anchor="middle" x="1272.85" y="-320.45" font-family="Times,serif" font-size="14.00">YES</text>
</g>
<!-- p0x58c775cbf7e0 -->
<g id="node19" class="node">
<title>p0x58c775cbf7e0</title>
<path fill="none" stroke="gray" d="M951,-117.75C951,-117.75 1043,-117.75 1043,-117.75 1049,-117.75 1055,-123.75 1055,-129.75 1055,-129.75 1055,-170.25 1055,-170.25 1055,-176.25 1049,-182.25 1043,-182.25 1043,-182.25 951,-182.25 951,-182.25 945,-182.25 939,-176.25 939,-170.25 939,-170.25 939,-129.75 939,-129.75 939,-123.75 945,-117.75 951,-117.75"/>
<text text-anchor="middle" x="997" y="-168.75" font-family="JetBrains Mono" font-size="10.00">[0x58c775cbf7e0]</text>
<polyline fill="none" stroke="gray" points="939,-160.75 1055,-160.75"/>
<text text-anchor="middle" x="997" y="-147.25" font-family="JetBrains Mono" font-size="10.00">data = [калиныч]</text>
<polyline fill="none" stroke="gray" points="939,-139.25 1055,-139.25"/>
<text text-anchor="middle" x="968" y="-125.75" font-family="JetBrains Mono" font-size="10.00">[(nil)]</text>
<polyline fill="none" stroke="gray" points="997,-117.75 997,-139.25"/>
<text text-anchor="middle" x="1026" y="-125.75" font-family="JetBrains Mono" font-size="10.00">[(nil)]</text>
</g>
<!-- p0x58c775cbf700&#45;&gt;p0x58c775cbf7e0 -->
<g id="edge18" class="edge">
<title>p0x58c775cbf700:l&#45;&gt;p0x58c775cbf7e0</title>
<path fill="none" stroke="green" stroke-width="2" stroke-dasharray="5,2" d="M1021,-234.5C1021,-234.5 1014.32,-211.27 1008.01,-189.31"/>
<polygon fill="green" stroke="green" stroke-width="2" points="1009.36,-188.93 1006.91,-185.48 1006.67,-189.71 1009.36,-188.93"/>
<text text-anchor="middle" x="1026.32" y="-203.2" font-family="Times,serif" font-size="14.00">NO</text>
</g>
<!-- p0x58c775cbf850 -->
<g id="node20" class="node">
<title>p0x58c775cbf850</title>
<path fill="none" stroke="gray" d="M1096,-117.75C1096,-117.75 1220,-117.75 1220,-117.75 1226,-117.75 1232,-123.75 1232,-129.75 1232,-129.75 1232,-170.25 1232,-170.25 1232,-176.25 1226,-182.25 1220,-182.25 1220,-182.25 1096,-182.25 1096,-182.25 1090,-182.25 1084,-176.25 1084,-170.25 1084,-170.25 1084,-129.75 1084,-129.75 1084,-123.75 1090,-117.75 1096,-117.75"/>
<text text-anchor="middle" x="1158" y="-168.75" font-family="JetBrains Mono" font-size="10.00">[0x58c775cbf850]</text>
<polyline fill="none" stroke="gray" points="1084,-160.75 1232,-160.75"/>
<text text-anchor="middle" x="1158" y="-147.25" font-family="JetBrains Mono" font-size="10.00">data = [жена_калиныча]</text>
<polyline fill="none" stroke="gray" points="1084,-139.25 1232,-139.25"/>
<text text-anchor="middle" x="1121" y="-125.75" font-family="JetBrains Mono" font-size="10.00">[(nil)]</text>
<polyline fill="none" stroke="gray" points="1158,-117.75 1158,-139.25"/>
<text text-anchor="middle" x="1195" y="-125.75" font-family="JetBrains Mono" font-size="10.00">[(nil)]</text>
</g>
<!-- p0x58c775cbf700&#45;&gt;p0x58c775cbf850 -->
<g id="edge19" class="edge">
<title>p0x58c775cbf700:r&#45;&gt;p0x58c775cbf850</title>
<path fill="none" stroke="green" stroke-width="2" stroke-dasharray="5,2" d="M1133,-234.5C1133,-234.5 1140.02,-211.07 1146.61,-189.03"/>
<polygon fill="green" stroke="green" stroke-width="2" points="1147.87,-189.7 1147.68,-185.47 1145.19,-188.9 1147.87,-189.7"/>
<text text-anchor="middle" x="1155.28" y="-203.2" font-family="Times,serif" font-size="14.00">YES</text>
</g>
<!-- p0x58c775cbfa10 -->
<g id="node24" class="node">
<title>p0x58c775cbfa10</title>
<path fill="none" stroke="gray" d="M1513,-469.5C1513,-469.5 1713,-469.5 1713,-469.5 1719,-469.5 1725,-475.5 1725,-481.5 1725,-481.5 1725,-522 1725,-522 1725,-528 1719,-534 1713,-534 1713,-534 1513,-534 1513,-534 1507,-534 1501,-528 1501,-522 1501,-522 1501,-481.5 1501,-481.5 1501,-475.5 1507,-469.5 1513,-469.5"/>
<text text-anchor="middle" x="1613" y="-520.5" font-family="JetBrains Mono" font-size="10.00">[0x58c775cbfa10]</text>
<polyline fill="none" stroke="gray" points="1501,-512.5 1725,-512.5"/>
<text text-anchor="middle" x="1613" y="-499" font-family="JetBrains Mono" font-size="10.00">data = [танцует]</text>
<polyline fill="none" stroke="gray" points="1501,-491 1725,-491"/>
<text text-anchor="middle" x="1557" y="-477.5" font-family="JetBrains Mono" font-size="10.00">[0x58c775cbfa80]</text>
<polyline fill="none" stroke="gray" points="1613,-469.5 1613,-491"/>
<text text-anchor="middle" x="1669" y="-477.5" font-family="JetBrains Mono" font-size="10.00">[0x58c775cbfcb0]</text>
</g>
<!-- p0x58c775cbf9a0&#45;&gt;p0x58c775cbfa10 -->
<g id="edge23" class="edge">
<title>p0x58c775cbf9a0:l&#45;&gt;p0x58c775cbfa10</title>
<path fill="none" stroke="green" stroke-width="2" stroke-dasharray="5,2" d="M1613,-586.25C1613,-586.25 1613,-563.02 1613,-541.06"/>
<polygon fill="green" stroke="green" stroke-width="2" points="1614.4,-541.34 1613,-537.34 1611.6,-541.34 1614.4,-541.34"/>
<text text-anchor="middle" x="1623.5" y="-554.95" font-family="Times,serif" font-size="14.00">NO</text>
</g>
<!-- p0x58c775cbfd20 -->
<g id="node31" class="node">
<title>p0x58c775cbfd20</title>
<path fill="none" stroke="gray" d="M1766,-469.5C1766,-469.5 1890,-469.5 1890,-469.5 1896,-469.5 1902,-475.5 1902,-481.5 1902,-481.5 1902,-522 1902,-522 1902,-528 1896,-534 1890,-534 1890,-534 1766,-534 1766,-534 1760,-534 1754,-528 1754,-522 1754,-522 1754,-481.5 1754,-481.5 1754,-475.5 1760,-469.5 1766,-469.5"/>
<text text-anchor="middle" x="1828" y="-520.5" font-family="JetBrains Mono" font-size="10.00">[0x58c775cbfd20]</text>
<polyline fill="none" stroke="gray" points="1754,-512.5 1902,-512.5"/>
<text text-anchor="middle" x="1828" y="-499" font-family="JetBrains Mono" font-size="10.00">data = [кошко&#45;мальчик]</text>
<polyline fill="none" stroke="gray" points="1754,-491 1902,-491"/>
<text text-anchor="middle" x="1791" y="-477.5" font-family="JetBrains Mono" font-size="10.00">[(nil)]</text>
<polyline fill="none" stroke="gray" points="1828,-469.5 1828,-491"/>
<text text-anchor="middle" x="1865" y="-477.5" font-family="JetBrains Mono" font-size="10.00">[(nil)]</text>
</g>
<!-- p0x58c775cbf9a0&#45;&gt;p0x58c775cbfd20 -->
<g id="edge30" class="edge">
<title>p0x58c775cbf9a0:r&#45;&gt;p0x58c775cbfd20</title>
<path fill="none" stroke="green" stroke-width="2" stroke-dasharray="5,2" d="M1782,-597.5C1782,-597.5 1796.83,-566.96 1809.65,-540.55"/>
<polygon fill="green" stroke="green" stroke-width="2" points="1810.87,-541.23 1811.36,-537.02 1808.35,-540.01 1810.87,-541.23"/>
<text text-anchor="middle" x="1816.37" y="-554.95" font-family="Times,serif" font-size="14.00">YES</text>
</g>
<!-- p0x58c775cbfa80 -->
<g id="node25" class="node">
<title>p0x58c775cbfa80</title>
<path fill="none" stroke="gray" d="M1457,-352.25C1457,-352.25 1657,-352.25 1657,-352.25 1663,-352.25 1669,-358.25 1669,-364.25 1669,-364.25 1669,-404.75 1669,-404.75 1669,-410.75 1663,-416.75 1657,-416.75 1657,-416.75 1457,-416.75 1457,-416.75 1451,-416.75 1445,-410.75 1445,-404.75 1445,-404.75 1445,-364.25 1445,-364.25 1445,-358.25 1451,-352.25 1457,-352.25"/>
<text text-anchor="middle" x="1557" y="-403.25" font-family="JetBrains Mono" font-size="10.00">[0x58c775cbfa80]</text>
<polyline fill="none" stroke="gray" points="1445,-395.25 1669,-395.25"/>
<text text-anchor="middle" x="1557" y="-381.75" font-family="JetBrains Mono" font-size="10.00">data = [маленький_пенис]</text>
<polyline fill="none" stroke="gray" points="1445,-373.75 1669,-373.75"/>
<text text-anchor="middle" x="1501" y="-360.25" font-family="JetBrains Mono" font-size="10.00">[0x58c775cbfaf0]</text>
<polyline fill="none" stroke="gray" points="1557,-352.25 1557,-373.75"/>
<text text-anchor="middle" x="1613" y="-360.25" font-family="JetBrains Mono" font-size="10.00">[0x58c775cbfb60]</text>
</g>
<!-- p0x58c775cbfa10&#45;&gt;p0x58c775cbfa80 -->
<g id="edge24" class="edge">
<title>p0x58c775cbfa10:l&#45;&gt;p0x58c775cbfa80</title>
<path fill="none" stroke="green" stroke-width="2" stroke-dasharray="5,2" d="M1557,-469C1557,-469 1557,-445.77 1557,-423.81"/>
<polygon fill="green" stroke="green" stroke-width="2" points="1558.4,-424.09 1557,-420.09 1555.6,-424.09 1558.4,-424.09"/>
<text text-anchor="middle" x="1567.5" y="-437.7" font-family="Times,serif" font-size="14.00">NO</text>
</g>
<!-- p0x58c775cbfcb0 -->
<g id="node30" class="node">
<title>p0x58c775cbfcb0</title>
<path fill="none" stroke="gray" d="M1710,-352.25C1710,-352.25 1802,-352.25 1802,-352.25 1808,-352.25 1814,-358.25 1814,-364.25 1814,-364.25 1814,-404.75 1814,-404.75 1814,-410.75 1808,-416.75 1802,-416.75 1802,-416.75 1710,-416.75 1710,-416.75 1704,-416.75 1698,-410.75 1698,-404.75 1698,-404.75 1698,-364.25 1698,-364.25 1698,-358.25 1704,-352.25 1710,-352.25"/>
<text text-anchor="middle" x="1756" y="-403.25" font-family="JetBrains Mono" font-size="10.00">[0x58c775cbfcb0]</text>
<polyline fill="none" stroke="gray" points="1698,-395.25 1814,-395.25"/>
<text text-anchor="middle" x="1756" y="-381.75" font-family="JetBrains Mono" font-size="10.00">data = [кактус]</text>
<polyline fill="none" stroke="gray" points="1698,-373.75 1814,-373.75"/>
<text text-anchor="middle" x="1727" y="-360.25" font-family="JetBrains Mono" font-size="10.00">[(nil)]</text>
<polyline fill="none" stroke="gray" points="1756,-352.25 1756,-373.75"/>
<text text-anchor="middle" x="1785" y="-360.25" font-family="JetBrains Mono" font-size="10.00">[(nil)]</text>
</g>
<!-- p0x58c775cbfa10&#45;&gt;p0x58c775cbfcb0 -->
<g id="edge29" class="edge">
<title>p0x58c775cbfa10:r&#45;&gt;p0x58c775cbfcb0</title>
<path fill="none" stroke="green" stroke-width="2" stroke-dasharray="5,2" d="M1726,-480.25C1726,-480.25 1735.59,-449.96 1743.92,-423.64"/>
<polygon fill="green" stroke="green" stroke-width="2" points="1745.22,-424.17 1745.1,-419.94 1742.55,-423.33 1745.22,-424.17"/>
<text text-anchor="middle" x="1752.85" y="-437.7" font-family="Times,serif" font-size="14.00">YES</text>
</g>
<!-- p0x58c775cbfaf0 -->
<g id="node26" class="node">
<title>p0x58c775cbfaf0</title>
<path fill="none" stroke="gray" d="M1415,-235C1415,-235 1507,-235 1507,-235 1513,-235 1519,-241 1519,-247 1519,-247 1519,-287.5 1519,-287.5 1519,-293.5 1513,-299.5 1507,-299.5 1507,-299.5 1415,-299.5 1415,-299.5 1409,-299.5 1403,-293.5 1403,-287.5 1403,-287.5 1403,-247 1403,-247 1403,-241 1409,-235 1415,-235"/>
<text text-anchor="middle" x="1461" y="-286" font-family="JetBrains Mono" font-size="10.00">[0x58c775cbfaf0]</text>
<polyline fill="none" stroke="gray" points="1403,-278 1519,-278"/>
<text text-anchor="middle" x="1461" y="-264.5" font-family="JetBrains Mono" font-size="10.00">data = [дед]</text>
<polyline fill="none" stroke="gray" points="1403,-256.5 1519,-256.5"/>
<text text-anchor="middle" x="1432" y="-243" font-family="JetBrains Mono" font-size="10.00">[(nil)]</text>
<polyline fill="none" stroke="gray" points="1461,-235 1461,-256.5"/>
<text text-anchor="middle" x="1490" y="-243" font-family="JetBrains Mono" font-size="10.00">[(nil)]</text>
</g>
<!-- p0x58c775cbfa80&#45;&gt;p0x58c775cbfaf0 -->
<g id="edge25" class="edge">
<title>p0x58c775cbfa80:l&#45;&gt;p0x58c775cbfaf0</title>
<path fill="none" stroke="green" stroke-width="2" stroke-dasharray="5,2" d="M1444,-363C1444,-363 1445,-351.75 1445,-351.75 1445,-351.75 1449.45,-328.52 1453.66,-306.56"/>
<polygon fill="green" stroke="green" stroke-width="2" points="1455,-306.98 1454.38,-302.79 1452.25,-306.46 1455,-306.98"/>
<text text-anchor="middle" x="1461.6" y="-320.45" font-family="Times,serif" font-size="14.00">NO</text>
</g>
<!-- p0x58c775cbfb60 -->
<g id="node27" class="node">
<title>p0x58c775cbfb60</title>
<path fill="none" stroke="gray" d="M1560,-235C1560,-235 1760,-235 1760,-235 1766,-235 1772,-241 1772,-247 1772,-247 1772,-287.5 1772,-287.5 1772,-293.5 1766,-299.5 1760,-299.5 1760,-299.5 1560,-299.5 1560,-299.5 1554,-299.5 1548,-293.5 1548,-287.5 1548,-287.5 1548,-247 1548,-247 1548,-241 1554,-235 1560,-235"/>
<text text-anchor="middle" x="1660" y="-286" font-family="JetBrains Mono" font-size="10.00">[0x58c775cbfb60]</text>
<polyline fill="none" stroke="gray" points="1548,-278 1772,-278"/>
<text text-anchor="middle" x="1660" y="-264.5" font-family="JetBrains Mono" font-size="10.00">data = [мягкая_попка]</text>
<polyline fill="none" stroke="gray" points="1548,-256.5 1772,-256.5"/>
<text text-anchor="middle" x="1604" y="-243" font-family="JetBrains Mono" font-size="10.00">[0x58c775cbfbd0]</text>
<polyline fill="none" stroke="gray" points="1660,-235 1660,-256.5"/>
<text text-anchor="middle" x="1716" y="-243" font-family="JetBrains Mono" font-size="10.00">[0x58c775cbfc40]</text>
</g>
<!-- p0x58c775cbfa80&#45;&gt;p0x58c775cbfb60 -->
<g id="edge26" class="edge">
<title>p0x58c775cbfa80:r&#45;&gt;p0x58c775cbfb60</title>
<path fill="none" stroke="green" stroke-width="2" stroke-dasharray="5,2" d="M1613,-351.75C1613,-351.75 1626.42,-327.91 1638.91,-305.71"/>
<polygon fill="green" stroke="green" stroke-width="2" points="1640,-306.63 1640.75,-302.46 1637.56,-305.25 1640,-306.63"/>
<text text-anchor="middle" x="1643.66" y="-320.45" font-family="Times,serif" font-size="14.00">YES</text>
</g>
<!-- p0x58c775cbfbd0 -->
<g id="node28" class="node">
<title>p0x58c775cbfbd0</title>
<path fill="none" stroke="gray" d="M1473,-117.75C1473,-117.75 1627,-117.75 1627,-117.75 1633,-117.75 1639,-123.75 1639,-129.75 1639,-129.75 1639,-170.25 1639,-170.25 1639,-176.25 1633,-182.25 1627,-182.25 1627,-182.25 1473,-182.25 1473,-182.25 1467,-182.25 1461,-176.25 1461,-170.25 1461,-170.25 1461,-129.75 1461,-129.75 1461,-123.75 1467,-117.75 1473,-117.75"/>
<text text-anchor="middle" x="1550" y="-168.75" font-family="JetBrains Mono" font-size="10.00">[0x58c775cbfbd0]</text>
<polyline fill="none" stroke="gray" points="1461,-160.75 1639,-160.75"/>
<text text-anchor="middle" x="1550" y="-147.25" font-family="JetBrains Mono" font-size="10.00">data = [ртртртртртртртртрт]</text>
<polyline fill="none" stroke="gray" points="1461,-139.25 1639,-139.25"/>
<text text-anchor="middle" x="1505.5" y="-125.75" font-family="JetBrains Mono" font-size="10.00">[(nil)]</text>
<polyline fill="none" stroke="gray" points="1550,-117.75 1550,-139.25"/>
<text text-anchor="middle" x="1594.5" y="-125.75" font-family="JetBrains Mono" font-size="10.00">[(nil)]</text>
</g>
<!-- p0x58c775cbfb60&#45;&gt;p0x58c775cbfbd0 -->
<g id="edge27" class="edge">
<title>p0x58c775cbfb60:l&#45;&gt;p0x58c775cbfbd0</title>
<path fill="none" stroke="green" stroke-width="2" stroke-dasharray="5,2" d="M1547,-245.75C1547,-245.75 1547.95,-215.72 1548.78,-189.47"/>
<polygon fill="green" stroke="green" stroke-width="2" points="1550.18,-189.62 1548.91,-185.58 1547.38,-189.53 1550.18,-189.62"/>
<text text-anchor="middle" x="1558.91" y="-203.2" font-family="Times,serif" font-size="14.00">NO</text>
</g>
<!-- p0x58c775cbfc40 -->
<g id="node29" class="node">
<title>p0x58c775cbfc40</title>
<path fill="none" stroke="gray" d="M1680,-117.75C1680,-117.75 1858,-117.75 1858,-117.75 1864,-117.75 1870,-123.75 1870,-129.75 1870,-129.75 1870,-170.25 1870,-170.25 1870,-176.25 1864,-182.25 1858,-182.25 1858,-182.25 1680,-182.25 1680,-182.25 1674,-182.25 1668,-176.25 1668,-170.25 1668,-170.25 1668,-129.75 1668,-129.75 1668,-123.75 1674,-117.75 1680,-117.75"/>
<text text-anchor="middle" x="1769" y="-168.75" font-family="JetBrains Mono" font-size="10.00">[0x58c775cbfc40]</text>
<polyline fill="none" stroke="gray" points="1668,-160.75 1870,-160.75"/>
<text text-anchor="middle" x="1769" y="-147.25" font-family="JetBrains Mono" font-size="10.00">data = [спспспспспспспспспспсп]</text>
<polyline fill="none" stroke="gray" points="1668,-139.25 1870,-139.25"/>
<text text-anchor="middle" x="1718.5" y="-125.75" font-family="JetBrains Mono" font-size="10.00">[(nil)]</text>
<polyline fill="none" stroke="gray" points="1769,-117.75 1769,-139.25"/>
<text text-anchor="middle" x="1819.5" y="-125.75" font-family="JetBrains Mono" font-size="10.00">[(nil)]</text>
</g>
<!-- p0x58c775cbfb60&#45;&gt;p0x58c775cbfc40 -->
<g id="edge28" class="edge">
<title>p0x58c775cbfb60:r&#45;&gt;p0x58c775cbfc40</title>
<path fill="none" stroke="green" stroke-width="2" stroke-dasharray="5,2" d="M1773,-245.75C1773,-245.75 1771.73,-215.72 1770.62,-189.47"/>
<polygon fill="green" stroke="green" stroke-width="2" points="1772.03,-189.51 1770.46,-185.57 1769.23,-189.63 1772.03,-189.51"/>
<text text-anchor="middle" x="1784.46" y="-203.2" font-family="Times,serif" font-size="14.00">YES</text>
</g>
</g>
</svg>
